<svg width="21" height="26" viewBox="0 0 21 26" fill="none" xmlns="http://www.w3.org/2000/svg">
<g id="Frame" clip-path="url(#clip0_1106_1318)">
<path id="Vector" d="M10.506 0C12.9864 0.0179504 15.3817 0.871704 17.2743 2.41248C19.1669 3.95325 20.437 6.08336 20.8631 8.43158C21.2354 10.4835 20.8223 12.4022 19.9619 14.2687C18.8528 16.6722 17.2985 18.8052 15.6091 20.8544C14.2029 22.5556 12.6908 24.1735 11.0813 25.6992C10.6611 26.0989 10.3495 26.1023 9.93785 25.7081C7.34662 23.2359 4.97478 20.5804 2.97096 17.6378C1.88259 16.0391 0.908551 14.3752 0.386874 12.5196C-0.600025 9.01323 0.339709 5.9326 2.8166 3.27017C4.43023 1.53482 6.49335 0.523283 8.88235 0.152452C9.4176 0.0638653 9.96429 0.0487573 10.506 0ZM18.0096 10.1168C18.0039 8.20602 17.2107 6.37523 15.8036 5.02513C14.3965 3.67504 12.4901 2.91561 10.5017 2.91308C8.51278 2.91671 6.60641 3.67756 5.20004 5.02902C3.79366 6.38048 3.0019 8.21241 2.99812 10.1237C2.99812 14.1067 6.3783 17.35 10.5196 17.3411C12.5082 17.3333 14.4127 16.5688 15.8161 15.2148C17.2196 13.8609 18.0078 12.0278 18.0081 10.1168H18.0096Z" fill="#37A2E7"/>
<path id="Vector_2" d="M6.42879 10.3324C6.19797 10.3324 6.00002 10.3365 5.80778 10.3324C5.5055 10.3242 5.28182 10.1765 5.18606 9.92588C5.08458 9.6608 5.1589 9.43281 5.369 9.24946C6.92689 7.88425 8.48644 6.52134 10.0477 5.16071C10.3449 4.90182 10.6622 4.9025 10.9617 5.16071C12.5181 6.51355 14.0715 7.87029 15.6217 9.23091C15.8361 9.42045 15.9255 9.65119 15.8183 9.92725C15.7182 10.1841 15.491 10.3242 15.1665 10.331C14.9879 10.3352 14.8092 10.3359 14.6313 10.3386C14.6234 10.3386 14.6163 10.3468 14.577 10.3695V10.6243C14.577 11.7835 14.577 12.9427 14.577 14.1018C14.577 14.643 14.3447 14.8648 13.7794 14.8655C13.3507 14.8655 12.9219 14.8696 12.4931 14.8655C12.0529 14.8607 11.7935 14.6141 11.7906 14.1911C11.7863 13.4872 11.7906 12.7833 11.7906 12.0794C11.7906 11.6029 11.5434 11.3666 11.051 11.3632C10.703 11.3632 10.3549 11.3632 10.0062 11.3632C9.45666 11.3632 9.22012 11.5884 9.22012 12.1097C9.22012 12.7799 9.22012 13.4495 9.22012 14.119C9.22012 14.6423 8.98358 14.8648 8.43403 14.8662C8.00526 14.8662 7.57648 14.8696 7.14771 14.8662C6.69321 14.862 6.43737 14.6155 6.43665 14.1753C6.43308 12.999 6.43665 11.8226 6.43665 10.6469L6.42879 10.3324Z" fill="#37A2E7"/>
</g>
<defs>
<clipPath id="clip0_1106_1318">
<rect width="21" height="26" fill="white"/>
</clipPath>
</defs>
</svg>
