<svg width="181" height="181" viewBox="0 0 181 181" fill="none" xmlns="http://www.w3.org/2000/svg">
<g id="Light@SVG 1" clip-path="url(#clip0_178_297)">
<g id="App-Icon-/-Apple-/-Health-/-Light">
<path id="Origin-Color" d="M161 0H20C8.9543 0 0 8.9543 0 20V161C0 172.046 8.9543 181 20 181H161C172.046 181 181 172.046 181 161V20C181 8.9543 172.046 0 161 0Z" fill="white"/>
<path id="Health-Icon" fill-rule="evenodd" clip-rule="evenodd" d="M129.993 30.2256C121.529 30.2256 114.685 33.1044 110.442 39.2612C110.394 39.3318 110.346 39.4026 110.298 39.4736C110.249 39.404 110.2 39.3325 110.151 39.2612C105.911 33.1082 99.0744 30.2256 92.1161 30.2256C85.3055 30.2256 79.291 32.8435 74.9785 37.1663C70.6622 41.4929 68.0518 47.5263 68.0518 54.3476C68.0518 64.2088 72.643 74.1488 79.9548 82.7868C87.7327 91.9754 98.5909 99.6915 110.299 104.275C119.913 101.005 131.355 92.7334 139.907 82.6305C147.303 73.893 152.542 63.7833 152.542 54.3476C152.542 47.6144 149.999 41.6488 145.963 37.3342C141.829 32.9132 136.127 30.2256 129.993 30.2256Z" fill="url(#paint0_linear_178_297)" stroke="url(#paint1_linear_178_297)" stroke-width="2"/>
</g>
</g>
<defs>
<linearGradient id="paint0_linear_178_297" x1="110.297" y1="30.2256" x2="110.297" y2="104.275" gradientUnits="userSpaceOnUse">
<stop stop-color="#FF61AD"/>
<stop offset="1" stop-color="#FF2719"/>
</linearGradient>
<linearGradient id="paint1_linear_178_297" x1="110.297" y1="30.2256" x2="110.297" y2="104.275" gradientUnits="userSpaceOnUse">
<stop stop-color="#FD4C94"/>
<stop offset="1" stop-color="#FF0000"/>
</linearGradient>
<clipPath id="clip0_178_297">
<rect width="181" height="181" fill="white"/>
</clipPath>
</defs>
</svg>
