<svg width="26" height="26" viewBox="0 0 26 26" fill="none" xmlns="http://www.w3.org/2000/svg">
<g id="arrow.backward.circle.fill">
<path id="arrow.backward.circle.fill_2" d="M12.9937 26C20.1189 26 26 20.1161 26 13C26 5.88395 20.1063 0 12.9812 0C5.86854 0 0 5.88395 0 13C0 20.1161 5.8811 26 12.9937 26ZM6.24553 12.9874C6.24553 12.6354 6.37119 12.3462 6.68536 12.0571L11.1213 7.68182C11.3475 7.45551 11.5988 7.36751 11.913 7.36751C12.5413 7.36751 12.9812 7.82012 12.9812 8.44874C12.9812 8.76306 12.8429 9.05222 12.6419 9.25339L11.071 10.7621L9.60077 11.9313L12.2774 11.8056H18.6235C19.2895 11.8056 19.767 12.3085 19.767 13C19.767 13.6789 19.2895 14.1818 18.6235 14.1818H12.2774L9.60077 14.0561L11.0585 15.2253L12.6419 16.734C12.8555 16.9352 12.9812 17.2244 12.9812 17.5387C12.9812 18.1673 12.5413 18.6325 11.913 18.6325C11.5988 18.6325 11.3475 18.5193 11.1213 18.3056L6.68536 13.9429C6.38376 13.6538 6.24553 13.3646 6.24553 12.9874Z" fill="white"/>
</g>
</svg>
