<svg width="24" height="25" viewBox="0 0 24 25" fill="none" xmlns="http://www.w3.org/2000/svg">
<path d="M6.13477 15.6739L9.59877 11.1739L13.5518 14.2739L16.9428 9.89893" stroke="#282454" stroke-width="1.5" stroke-miterlimit="10" stroke-linecap="round" stroke-linejoin="round"/>
<path d="M20.8939 5.64995C22.1228 5.64995 23.1189 4.65378 23.1189 3.42495C23.1189 2.19612 22.1228 1.19995 20.8939 1.19995C19.6651 1.19995 18.6689 2.19612 18.6689 3.42495C18.6689 4.65378 19.6651 5.64995 20.8939 5.64995Z" stroke="#282454" stroke-width="1.5" stroke-miterlimit="10" stroke-linecap="round" stroke-linejoin="round"/>
<path d="M15.0249 2.17407H6.61087C3.12487 2.17407 0.963867 4.64307 0.963867 8.12907V17.4861C0.963867 20.9721 3.08187 23.4311 6.61087 23.4311H16.5709C20.0569 23.4311 22.2189 20.9721 22.2189 17.4861V9.33807" stroke="#282454" stroke-width="1.5" stroke-miterlimit="10" stroke-linecap="round" stroke-linejoin="round"/>
</svg>
