<svg width="26" height="25" viewBox="0 0 26 25" fill="none" xmlns="http://www.w3.org/2000/svg">
<g id="Group 1476">
<path id="Vector" d="M6.06739 21.4142C5.33978 21.4142 4.58345 21.4237 3.83669 21.4142C1.99853 21.395 0.505017 20.1887 0.102918 18.408C0.0263279 18.0825 0.00718034 17.7474 0.00718034 17.4123C-0.00239345 12.9414 -0.00239345 8.47998 0.00718034 4.00902C0.00718034 2.02725 1.18475 0.514591 3.0325 0.102918C3.358 0.0359017 3.69309 0.00718034 4.02817 0.00718034C10.0118 -0.00239345 15.9954 -0.00239345 21.979 0.00718034C24.3725 0.00718034 26 1.6443 26 4.03774C26 8.48955 26 12.9509 26 17.4027C26 19.777 24.3629 21.4142 21.9982 21.4142C19.1643 21.4142 16.3401 21.4142 13.5062 21.4237C13.3052 21.4237 13.0754 21.4812 12.8935 21.5673C11.2372 22.3907 9.59054 23.2236 7.93427 24.047C7.36942 24.3246 6.88116 24.2863 6.49821 23.9416C6.23971 23.7023 6.12483 23.3959 6.12483 23.0417C6.12483 22.5247 6.11525 22.0173 6.11525 21.5003C6.11525 21.4908 6.09611 21.462 6.06739 21.4142ZM7.65663 22.4577C7.81939 22.3811 7.93427 22.3332 8.03001 22.2854C9.46608 21.5673 10.9021 20.8302 12.3574 20.1313C12.6541 19.9877 13.0084 19.9015 13.3435 19.9015C16.2347 19.8824 19.126 19.8919 22.0173 19.8919C23.5204 19.8919 24.4873 18.925 24.4873 17.4219C24.4873 12.9414 24.4873 8.46083 24.4873 3.98987C24.4873 2.49636 23.53 1.54856 22.046 1.53899C16.0241 1.53899 10.0118 1.53899 3.98987 1.53899C2.48679 1.53899 1.54856 2.47722 1.54856 3.9803C1.54856 8.47041 1.54856 12.9605 1.54856 17.4506C1.54856 18.9345 2.50594 19.8824 3.99945 19.8919C4.89938 19.8919 5.78975 19.8919 6.68968 19.8919C7.40771 19.8919 7.66621 20.1408 7.66621 20.8589C7.65663 21.3663 7.65663 21.8833 7.65663 22.4577Z" fill="#37A2E7"/>
<path id="Vector_2" d="M10.2129 11.2946C7.84814 9.36073 7.96303 6.21095 9.70545 4.43023C11.4766 2.61121 14.4445 2.58249 16.2443 4.39193C18.0155 6.17266 18.1687 9.31286 15.804 11.2851C15.871 11.3329 15.938 11.3808 16.005 11.4095C18.4176 12.6733 19.7101 14.6646 19.8824 17.3836C19.9207 17.958 19.6335 18.3218 19.1644 18.3409C18.6761 18.3601 18.3889 18.0346 18.3506 17.4601C18.2261 15.1337 17.0868 13.4775 14.9327 12.6062C11.5053 11.2276 7.76198 13.7551 7.65666 17.4506C7.63752 18.1686 7.07266 18.5707 6.52696 18.2548C6.23974 18.092 6.12486 17.8335 6.14401 17.508C6.24932 14.7795 7.52263 12.7786 9.9065 11.467C10.0022 11.3999 10.098 11.3521 10.2129 11.2946ZM16.0529 7.63745C16.0529 5.95246 14.6838 4.58341 12.9988 4.58341C11.333 4.58341 9.9448 5.96204 9.9448 7.63745C9.9448 9.33201 11.3234 10.7106 13.018 10.7106C14.6934 10.7106 16.0529 9.33201 16.0529 7.63745Z" fill="#37A2E7"/>
</g>
</svg>
