<svg width="100" height="104" viewBox="0 0 100 104" fill="none" xmlns="http://www.w3.org/2000/svg">
<g id="Group 1475">
<path id="Vector" d="M26.3376 103.687C25.3385 103.498 24.3395 103.39 23.3944 103.093C21.8283 102.607 20.2622 102.04 18.7771 101.365C18.075 101.041 17.562 100.96 16.8329 101.257C10.3525 104.092 3.73703 101.77 0.361799 95.5595C-0.259244 94.4255 -0.0702303 93.4264 0.847833 92.9134C1.7659 92.4003 2.71096 92.7243 3.35901 93.8584C4.92511 96.6666 7.13927 98.6378 10.4335 98.9078C11.8106 99.0158 13.2147 98.7458 14.8888 98.6378C14.4838 98.0977 14.3218 97.8817 14.1598 97.6657C12.2426 95.1545 11.1625 92.4003 11.7566 89.1871C12.3506 86.0279 15.0778 83.7867 18.183 83.8677C21.1532 83.9487 23.5564 86.2169 24.0964 89.4031C24.6095 92.4543 23.7994 95.1545 21.8823 97.5307C21.6123 97.8817 21.3153 98.2057 21.0452 98.5298C25.8516 102.418 37.8944 99.6368 41.5667 93.7504C41.2696 93.5614 40.9726 93.3724 40.6486 93.1834C27.9847 85.5959 18.5071 75.2271 13.3227 61.2672C10.7575 54.3547 10.0285 47.2532 11.9726 40.0167C13.4037 34.6973 16.2389 30.215 20.1812 26.4348C22.9624 23.7616 26.8776 23.3296 30.2529 25.2737C35.4912 28.3249 39.6225 32.5102 42.6467 37.7486C44.7799 41.4478 43.8618 45.7951 40.4866 48.4143C37.0033 51.1145 35.6532 54.9217 37.1383 59.323C39.5415 66.5595 44.4829 71.4199 51.9084 73.364C55.8236 74.3901 59.1449 73.067 61.683 69.9078C64.6533 66.2085 68.8385 65.3985 72.8888 67.8556C77.9112 70.8528 81.9074 74.9031 84.8777 79.9255C86.9028 83.3817 86.4438 87.405 83.6356 90.2402C76.048 97.9087 66.8674 100.609 56.3097 98.9078C55.7156 98.7998 55.1216 98.7188 54.5275 98.5837C53.5015 98.3407 52.9074 97.5037 53.0695 96.5856C53.2315 95.6135 54.0955 95.0465 55.1756 95.1815C56.7957 95.3975 58.4428 95.7215 60.0629 95.8566C66.2734 96.3156 72.0248 94.8305 77.1551 91.2392C77.2901 91.1312 77.4251 91.0502 77.5601 90.9422C77.6141 90.8882 77.6412 90.8342 77.8302 90.5912C76.2371 88.5391 74.6979 86.3789 72.9698 84.3808C71.5387 82.7337 69.9186 81.2215 68.3525 79.7094C67.2454 78.6294 67.0294 77.6843 67.8125 76.8472C68.5415 76.0642 69.5676 76.1722 70.6477 77.1173C74.2119 80.2495 77.2901 83.8137 79.9363 87.756C80.0713 87.972 80.2333 88.188 80.3953 88.4041C82.6095 86.8919 83.2845 84.1918 81.9884 81.8966C79.2343 77.1173 75.481 73.337 70.6747 70.5828C68.5685 69.3677 66.0574 69.8538 64.6533 71.6359C60.738 76.6582 55.6076 78.4134 49.5862 76.3342C41.3776 73.499 35.8693 67.8556 33.5201 59.404C32.521 55.7858 33.0341 52.2215 35.1672 49.0353C35.5182 48.5223 35.3562 48.1983 35.0862 47.7932C32.332 43.581 29.0648 39.8547 25.2305 36.5875C24.9065 36.3175 24.5555 36.0204 24.2315 35.7234C23.5294 35.0214 23.4484 34.0763 24.0154 33.3472C24.6095 32.6182 25.6626 32.4562 26.4456 33.1312C28.1737 34.6433 29.9558 36.1014 31.495 37.8026C33.5741 40.1247 35.4642 42.6629 37.4084 45.0931C37.5974 45.3361 37.7594 45.5521 37.9214 45.7951C40.0005 44.688 40.9186 41.9878 39.7575 39.8547C36.9763 34.7243 33.0071 30.7011 27.8497 27.9469C26.0136 26.9478 24.0964 27.3798 22.6113 28.7839C17.562 33.5363 14.7538 39.4227 14.3488 46.3621C13.9167 54.0307 16.1579 61.0242 19.8842 67.5856C25.7166 77.8463 33.8981 85.7039 44.3208 91.2392C46.076 92.1573 46.292 92.9944 45.1849 94.6145C41.6477 99.7178 36.8143 102.715 30.6579 103.498C30.4689 103.525 30.2799 103.606 30.0909 103.66C28.9028 103.687 27.6067 103.687 26.3376 103.687ZM18.048 96.7206C18.6961 95.8836 19.3711 95.1815 19.9112 94.3715C20.8562 92.9134 21.0722 91.2933 20.6672 89.6191C20.3702 88.35 19.5061 87.513 18.372 87.351C17.319 87.189 16.0769 87.756 15.6179 88.8361C15.2938 89.6191 15.0778 90.5372 15.1318 91.3473C15.2668 93.4264 16.2929 95.1545 18.048 96.7206Z" fill="#37A2E7"/>
<path id="Vector_2" d="M75.6702 0C77.7223 0.459032 79.8555 0.756053 81.8536 1.4041C92.8164 4.99535 100.107 15.3101 99.9989 26.8669C99.9179 33.9413 98.0817 40.3948 93.3294 45.7952C89.1441 50.5475 83.7437 53.3557 77.7493 55.0838C76.0482 55.5698 74.2661 55.8939 72.538 56.2719C72.3759 56.2989 72.2139 56.3259 72.0249 56.3259C70.9178 56.4069 70.1618 55.8669 69.9998 54.9488C69.8378 53.9767 70.4318 53.1667 71.5389 52.9237C73.186 52.5456 74.8331 52.2756 76.4532 51.8436C81.5026 50.4395 86.0929 48.2253 89.8191 44.4451C94.7875 39.4227 96.6236 33.1853 96.5156 26.2728C96.3266 13.1229 85.4179 2.8892 72.3489 3.48324C59.064 4.07728 48.9113 16.1741 50.5584 29.432C51.3145 35.5345 54.0957 40.5298 58.821 44.4721C60.0361 45.4981 60.2251 45.9572 59.6311 47.4423C59.091 48.8194 58.416 50.1425 57.7409 51.4656C57.2279 52.4916 57.4169 53.0047 58.497 53.3557C59.6311 53.7337 60.1171 54.4628 59.9011 55.4618C59.6851 56.4069 58.875 56.8929 57.7139 56.7039C54.8247 56.2719 53.1506 52.9237 54.5007 50.2235C54.9597 49.3324 55.4188 48.4143 55.9048 47.5503C56.2018 47.0103 56.0668 46.6592 55.6348 46.2542C51.0175 42.0689 48.2903 36.8846 47.2102 30.7551C44.915 17.5242 53.9607 3.86127 67.0566 0.810056C68.4337 0.486034 69.8108 0.270019 71.1879 0C72.7 0 74.1851 0 75.6702 0Z" fill="#37A2E7"/>
<path id="Vector_3" d="M79.5043 34.5894C79.5313 37.1006 79.8283 39.5848 77.6142 41.3939C76.1561 42.582 74.455 42.582 72.7268 42.555C70.7557 42.528 69.0006 41.7989 68.2445 40.0168C67.5695 38.3967 67.4615 36.5336 67.0564 34.5894C66.5434 34.5894 65.7334 34.5894 64.9503 34.5894C61.6021 34.5354 59.4689 32.3753 59.4689 29.054C59.4689 28.271 59.4149 27.4879 59.5499 26.7319C59.982 24.2477 62.0881 22.5466 64.6263 22.4926C65.5173 22.4656 66.4354 22.4926 67.4075 22.4926C67.4075 19.9814 67.1104 17.4702 69.2976 15.6881C70.7827 14.473 72.5108 14.446 74.266 14.5C76.2371 14.554 77.9652 15.3101 78.7213 17.1192C79.3693 18.7123 79.4503 20.5485 79.8283 22.4926C80.3414 22.4926 81.1784 22.4926 81.9885 22.4926C85.2287 22.4926 87.3889 24.5717 87.4699 27.812C87.4969 28.784 87.4969 29.7831 87.2809 30.7282C86.7678 32.9963 84.7157 34.5084 82.2045 34.5894C81.3404 34.6164 80.4764 34.5894 79.5043 34.5894ZM76.0751 21.9795C76.0751 21.1965 76.1021 20.4134 76.0751 19.6574C76.0211 18.6583 75.427 18.0373 74.428 17.9563C73.9689 17.9293 73.4829 17.9293 73.0239 17.9293C71.5388 17.9563 70.9447 18.5503 70.9177 20.0354C70.8907 21.3585 70.9447 22.6816 70.8907 23.9777C70.8637 25.2738 70.2427 25.8948 68.9466 25.9218C67.6775 25.9488 66.3814 25.9218 65.1123 25.9218C63.5192 25.9218 62.9522 26.5159 62.9522 28.136C62.9522 28.433 62.9522 28.757 62.9522 29.054C62.9792 30.4581 63.5732 31.0792 65.0043 31.1062C66.3274 31.1332 67.6235 31.1062 68.9466 31.1062C70.3237 31.1332 70.8907 31.7272 70.9177 33.1043C70.9447 34.0494 70.9177 34.9945 70.9177 35.9395C70.9177 38.8287 71.3227 39.1797 74.2119 39.0717C75.427 39.0177 76.0751 38.3967 76.1021 37.1816C76.1291 35.9665 76.1021 34.7514 76.1021 33.5364C76.1021 31.6192 76.5881 31.1062 78.4782 31.1062C79.6663 31.1062 80.8274 31.1332 82.0155 31.1062C83.4466 31.0792 84.0406 30.4851 84.0946 29.081C84.0946 28.703 84.0946 28.325 84.0946 27.974C84.0406 26.5429 83.4466 25.9488 82.0425 25.9218C80.7194 25.9218 79.4233 25.9218 78.1002 25.9218C76.7771 25.8948 76.1561 25.2468 76.1291 23.9237C76.0481 23.2756 76.0751 22.6276 76.0751 21.9795Z" fill="#37A2E7"/>
</g>
</svg>
