<svg width="20" height="17" viewBox="0 0 20 17" fill="none" xmlns="http://www.w3.org/2000/svg">
<path id="Icon/Envelope Fill" d="M10.0269 9.45227C9.70457 9.45227 9.36437 9.32383 8.98836 8.95685L1.18174 0.920157C1.43241 0.736671 1.96956 0.571533 2.72158 0.571533H17.3142C18.0842 0.571533 18.6213 0.736671 18.872 0.920157L11.0474 8.95685C10.6893 9.30548 10.3671 9.45227 10.0269 9.45227ZM6.46374 8.55318L0.214861 14.9569C0.0716204 14.7183 0 14.2596 0 13.5991V3.54401C0 2.86511 0.0895255 2.4064 0.214861 2.16786L6.46374 8.55318ZM13.5542 8.55318L19.803 2.16786C19.9284 2.4064 20 2.86511 20 3.54401V13.5991C20 14.2596 19.9284 14.7183 19.803 14.9569L13.5542 8.55318ZM10.009 11.0302C10.6893 11.0302 11.2086 10.7734 11.889 10.1312L12.4261 9.6174L18.872 16.2229C18.6213 16.4431 18.0842 16.5715 17.3142 16.5715H2.72158C1.93375 16.5715 1.4145 16.4431 1.16383 16.2229L7.59176 9.6174L8.14682 10.1312C8.82722 10.7734 9.34646 11.0302 10.009 11.0302Z" fill="#37A2E7"/>
</svg>
