<svg width="264" height="188" viewBox="0 0 264 188" fill="none" xmlns="http://www.w3.org/2000/svg">
<path opacity="0.2" d="M258.397 101.454C258.397 153.369 183.184 188 131.269 188C79.354 188 4.96924 153.369 4.96924 101.454C4.96924 49.539 79.354 0 131.269 0C183.184 0 258.397 49.539 258.397 101.454Z" fill="#37A2E7"/>
<path opacity="0.3" d="M263.366 46.7929C263.366 89.1023 166.953 169.78 124.643 169.78C82.3338 169.78 0 89.1023 0 46.7929C0 4.48351 82.3338 16.5638 124.643 16.5638C166.953 16.5638 263.366 4.48351 263.366 46.7929Z" fill="#37A2E7"/>
<circle opacity="0.7" cx="131.269" cy="86.5461" r="61.7004" fill="#37A2E7"/>
<g clip-path="url(#clip0_196_748)">
<path d="M132.097 97.2143C129.762 97.2143 127.852 95.3331 127.852 93.0338C127.852 90.7346 129.762 88.8534 132.097 88.8534C134.431 88.8534 136.341 90.7346 136.341 93.0338C136.341 95.3331 134.431 97.2143 132.097 97.2143ZM119.363 78.4024H121.486V74.222C121.486 68.4531 126.239 63.771 132.097 63.771C137.954 63.771 142.708 68.4531 142.708 74.222H138.676C138.676 70.6478 135.726 67.7424 132.097 67.7424C128.468 67.7424 125.518 70.6478 125.518 74.222V78.4024H144.83C147.165 78.4024 149.075 80.2836 149.075 82.5828V103.485C149.075 105.784 147.165 107.665 144.83 107.665H119.363C117.029 107.665 115.119 105.784 115.119 103.485V82.5828C115.119 80.2836 117.029 78.4024 119.363 78.4024ZM119.363 103.485H144.83V82.5828H119.363V103.485Z" fill="white"/>
</g>
<defs>
<clipPath id="clip0_196_748">
<rect width="49.6916" height="49.6916" fill="white" transform="translate(106.837 61.2864)"/>
</clipPath>
</defs>
</svg>
