<svg width="197" height="24" viewBox="0 0 197 24" fill="none" xmlns="http://www.w3.org/2000/svg">
<path d="M0.944 18V0.48H13.088V3.144H3.944V8.136H12.608V10.728H3.944V18H0.944ZM20.7603 18.24C18.7443 18.24 17.1843 17.68 16.0803 16.56C14.9923 15.424 14.4483 13.824 14.4483 11.76C14.4483 9.696 14.9923 8.104 16.0803 6.984C17.1843 5.848 18.7443 5.28 20.7603 5.28C22.7763 5.28 24.3363 5.848 25.4403 6.984C26.5443 8.104 27.0963 9.696 27.0963 11.76C27.0963 13.824 26.5443 15.424 25.4403 16.56C24.3363 17.68 22.7763 18.24 20.7603 18.24ZM20.7603 15.888C21.8643 15.888 22.7043 15.544 23.2803 14.856C23.8563 14.152 24.1443 13.12 24.1443 11.76C24.1443 10.4 23.8563 9.376 23.2803 8.688C22.7043 7.984 21.8643 7.632 20.7603 7.632C19.6723 7.632 18.8323 7.984 18.2403 8.688C17.6643 9.376 17.3763 10.4 17.3763 11.76C17.3763 13.12 17.6643 14.152 18.2403 14.856C18.8323 15.544 19.6723 15.888 20.7603 15.888ZM29.9664 18V5.52H32.7984L32.8224 7.872H32.8704C33.2864 7.328 33.7744 6.864 34.3344 6.48C34.9104 6.08 35.5424 5.784 36.2304 5.592C36.9184 5.384 37.6384 5.28 38.3904 5.28V7.824C37.3824 7.824 36.4624 8.016 35.6304 8.4C34.8144 8.784 34.1584 9.304 33.6624 9.96C33.1824 10.6 32.9424 11.32 32.9424 12.12V18H29.9664ZM44.8976 23.28C43.9056 23.28 42.9616 23.184 42.0656 22.992C41.1856 22.8 40.4416 22.528 39.8336 22.176L40.2176 19.872C40.7936 20.208 41.4736 20.464 42.2576 20.64C43.0576 20.832 43.8416 20.928 44.6096 20.928C46.0176 20.928 47.0176 20.592 47.6096 19.92C48.2176 19.264 48.5216 18.168 48.5216 16.632V15.912H48.4736C47.9936 16.44 47.4096 16.84 46.7216 17.112C46.0496 17.384 45.3056 17.52 44.4896 17.52C42.8256 17.52 41.5296 16.984 40.6016 15.912C39.6736 14.84 39.2096 13.336 39.2096 11.4C39.2096 9.464 39.6736 7.96 40.6016 6.888C41.5296 5.816 42.8256 5.28 44.4896 5.28C45.3216 5.28 46.0896 5.424 46.7936 5.712C47.5136 5.984 48.1056 6.376 48.5696 6.888H48.6176L48.6416 5.52H51.4256V16.632C51.4256 18.888 50.8976 20.56 49.8416 21.648C48.7856 22.736 47.1376 23.28 44.8976 23.28ZM45.2576 15.12C45.8976 15.12 46.4576 15.008 46.9376 14.784C47.4176 14.56 47.8016 14.256 48.0896 13.872C48.3776 13.488 48.5216 13.04 48.5216 12.528V10.272C48.5216 9.776 48.3776 9.336 48.0896 8.952C47.8016 8.552 47.4176 8.24 46.9376 8.016C46.4576 7.792 45.8976 7.68 45.2576 7.68C44.2656 7.68 43.4896 8.008 42.9296 8.664C42.3696 9.304 42.0896 10.216 42.0896 11.4C42.0896 12.6 42.3696 13.52 42.9296 14.16C43.4896 14.8 44.2656 15.12 45.2576 15.12ZM60.6444 18.24C58.6284 18.24 57.0684 17.68 55.9644 16.56C54.8764 15.424 54.3324 13.824 54.3324 11.76C54.3324 9.696 54.8764 8.104 55.9644 6.984C57.0684 5.848 58.6284 5.28 60.6444 5.28C62.6604 5.28 64.2204 5.848 65.3244 6.984C66.4284 8.104 66.9804 9.696 66.9804 11.76C66.9804 13.824 66.4284 15.424 65.3244 16.56C64.2204 17.68 62.6604 18.24 60.6444 18.24ZM60.6444 15.888C61.7484 15.888 62.5884 15.544 63.1644 14.856C63.7404 14.152 64.0284 13.12 64.0284 11.76C64.0284 10.4 63.7404 9.376 63.1644 8.688C62.5884 7.984 61.7484 7.632 60.6444 7.632C59.5564 7.632 58.7164 7.984 58.1244 8.688C57.5484 9.376 57.2604 10.4 57.2604 11.76C57.2604 13.12 57.5484 14.152 58.1244 14.856C58.7164 15.544 59.5564 15.888 60.6444 15.888ZM75.068 18.24C73.596 18.24 72.532 17.936 71.876 17.328C71.22 16.72 70.892 15.728 70.892 14.352V7.872H68.108V5.52H70.892V1.44H73.868V5.52H78.068V7.872H73.868V13.608C73.868 14.408 73.996 14.968 74.252 15.288C74.524 15.592 74.996 15.744 75.668 15.744C76.02 15.744 76.388 15.712 76.772 15.648C77.156 15.584 77.5 15.496 77.804 15.384L78.068 17.808C77.524 17.968 77.012 18.08 76.532 18.144C76.052 18.208 75.564 18.24 75.068 18.24Z" fill="white"/>
<path d="M88.3349 18V0.48H93.4949C96.1189 0.48 98.0629 0.967999 99.3269 1.944C100.607 2.904 101.247 4.392 101.247 6.408C101.247 8.376 100.639 9.856 99.4229 10.848C98.2069 11.824 96.3749 12.312 93.9269 12.312H89.8229V9.672H93.5669C95.1829 9.672 96.3589 9.416 97.0949 8.904C97.8309 8.376 98.1989 7.544 98.1989 6.408C98.1989 5.256 97.8309 4.424 97.0949 3.912C96.3589 3.384 95.1829 3.12 93.5669 3.12H91.3349V18H88.3349ZM106.171 18.24C104.923 18.24 103.939 17.904 103.219 17.232C102.515 16.544 102.163 15.616 102.163 14.448C102.163 12.992 102.731 11.872 103.867 11.088C105.003 10.304 106.619 9.912 108.715 9.912H110.467C110.467 9.304 110.387 8.84 110.227 8.52C110.083 8.184 109.827 7.952 109.459 7.824C109.107 7.696 108.603 7.632 107.947 7.632C107.147 7.632 106.315 7.712 105.451 7.872C104.603 8.032 103.803 8.272 103.051 8.592L102.667 6.264C103.483 5.96 104.387 5.72 105.379 5.544C106.371 5.368 107.363 5.28 108.355 5.28C109.619 5.28 110.611 5.432 111.331 5.736C112.067 6.04 112.595 6.552 112.915 7.272C113.235 7.992 113.395 8.944 113.395 10.128V18H110.587L110.563 16.56H110.515C110.083 17.056 109.459 17.464 108.643 17.784C107.827 18.088 107.003 18.24 106.171 18.24ZM107.227 15.936C107.819 15.936 108.363 15.832 108.859 15.624C109.355 15.4 109.747 15.104 110.035 14.736C110.323 14.368 110.467 13.952 110.467 13.488V11.976H109.147C107.771 11.976 106.731 12.16 106.027 12.528C105.339 12.88 104.995 13.424 104.995 14.16C104.995 14.704 105.187 15.136 105.571 15.456C105.955 15.776 106.507 15.936 107.227 15.936ZM120.995 18.24C120.435 18.24 119.851 18.2 119.243 18.12C118.635 18.056 118.051 17.96 117.491 17.832C116.931 17.688 116.435 17.528 116.003 17.352L116.387 15.048C117.123 15.304 117.851 15.512 118.571 15.672C119.291 15.816 119.995 15.888 120.683 15.888C121.563 15.888 122.203 15.768 122.603 15.528C123.019 15.288 123.227 14.928 123.227 14.448C123.227 14.176 123.155 13.952 123.011 13.776C122.867 13.584 122.611 13.416 122.243 13.272C121.891 13.112 121.387 12.96 120.731 12.816C119.739 12.56 118.883 12.272 118.163 11.952C117.443 11.616 116.891 11.2 116.507 10.704C116.123 10.192 115.931 9.56 115.931 8.808C115.931 7.656 116.371 6.784 117.251 6.192C118.147 5.584 119.427 5.28 121.091 5.28C121.875 5.28 122.675 5.344 123.491 5.472C124.323 5.6 125.091 5.784 125.795 6.024L125.387 8.328C124.715 8.088 124.051 7.912 123.395 7.8C122.755 7.688 122.115 7.632 121.475 7.632C120.595 7.632 119.947 7.736 119.531 7.944C119.115 8.152 118.907 8.472 118.907 8.904C118.907 9.144 118.971 9.352 119.099 9.528C119.243 9.704 119.491 9.872 119.843 10.032C120.195 10.176 120.691 10.32 121.331 10.464C122.067 10.624 122.731 10.824 123.323 11.064C123.915 11.288 124.427 11.56 124.859 11.88C125.291 12.2 125.619 12.576 125.843 13.008C126.083 13.44 126.203 13.944 126.203 14.52C126.203 15.288 125.995 15.952 125.579 16.512C125.163 17.056 124.563 17.48 123.779 17.784C123.011 18.088 122.083 18.24 120.995 18.24ZM133.094 18.24C132.534 18.24 131.95 18.2 131.342 18.12C130.734 18.056 130.15 17.96 129.59 17.832C129.03 17.688 128.534 17.528 128.102 17.352L128.486 15.048C129.222 15.304 129.95 15.512 130.67 15.672C131.39 15.816 132.094 15.888 132.782 15.888C133.662 15.888 134.302 15.768 134.702 15.528C135.118 15.288 135.326 14.928 135.326 14.448C135.326 14.176 135.254 13.952 135.11 13.776C134.966 13.584 134.71 13.416 134.342 13.272C133.99 13.112 133.486 12.96 132.83 12.816C131.838 12.56 130.982 12.272 130.262 11.952C129.542 11.616 128.99 11.2 128.606 10.704C128.222 10.192 128.03 9.56 128.03 8.808C128.03 7.656 128.47 6.784 129.35 6.192C130.246 5.584 131.526 5.28 133.19 5.28C133.974 5.28 134.774 5.344 135.59 5.472C136.422 5.6 137.19 5.784 137.894 6.024L137.486 8.328C136.814 8.088 136.15 7.912 135.494 7.8C134.854 7.688 134.214 7.632 133.574 7.632C132.694 7.632 132.046 7.736 131.63 7.944C131.214 8.152 131.006 8.472 131.006 8.904C131.006 9.144 131.07 9.352 131.198 9.528C131.342 9.704 131.59 9.872 131.942 10.032C132.294 10.176 132.79 10.32 133.43 10.464C134.166 10.624 134.83 10.824 135.422 11.064C136.014 11.288 136.526 11.56 136.958 11.88C137.39 12.2 137.718 12.576 137.942 13.008C138.182 13.44 138.302 13.944 138.302 14.52C138.302 15.288 138.094 15.952 137.678 16.512C137.262 17.056 136.662 17.48 135.878 17.784C135.11 18.088 134.182 18.24 133.094 18.24ZM143.197 18L139.909 5.52H143.053L144.973 15.216H145.021L146.989 5.52H150.829L152.797 15.216H152.845L154.789 5.52H157.909L154.621 18H150.901L148.933 8.496H148.885L146.917 18H143.197ZM165.713 18.24C163.697 18.24 162.137 17.68 161.033 16.56C159.945 15.424 159.401 13.824 159.401 11.76C159.401 9.696 159.945 8.104 161.033 6.984C162.137 5.848 163.697 5.28 165.713 5.28C167.729 5.28 169.289 5.848 170.393 6.984C171.497 8.104 172.049 9.696 172.049 11.76C172.049 13.824 171.497 15.424 170.393 16.56C169.289 17.68 167.729 18.24 165.713 18.24ZM165.713 15.888C166.817 15.888 167.657 15.544 168.233 14.856C168.809 14.152 169.097 13.12 169.097 11.76C169.097 10.4 168.809 9.376 168.233 8.688C167.657 7.984 166.817 7.632 165.713 7.632C164.625 7.632 163.785 7.984 163.193 8.688C162.617 9.376 162.329 10.4 162.329 11.76C162.329 13.12 162.617 14.152 163.193 14.856C163.785 15.544 164.625 15.888 165.713 15.888ZM174.919 18V5.52H177.751L177.775 7.872H177.823C178.239 7.328 178.727 6.864 179.287 6.48C179.863 6.08 180.495 5.784 181.183 5.592C181.871 5.384 182.591 5.28 183.343 5.28V7.824C182.335 7.824 181.415 8.016 180.583 8.4C179.767 8.784 179.111 9.304 178.615 9.96C178.135 10.6 177.895 11.32 177.895 12.12V18H174.919ZM189.442 18.24C187.778 18.24 186.482 17.672 185.554 16.536C184.626 15.4 184.162 13.808 184.162 11.76C184.162 9.712 184.626 8.12 185.554 6.984C186.482 5.848 187.778 5.28 189.442 5.28C190.274 5.28 191.026 5.424 191.698 5.712C192.37 6 192.938 6.424 193.402 6.984H193.474V0.48H196.378V18H193.618L193.57 16.536H193.522C193.058 17.08 192.466 17.504 191.746 17.808C191.042 18.096 190.274 18.24 189.442 18.24ZM190.21 15.84C190.834 15.84 191.386 15.712 191.866 15.456C192.362 15.2 192.754 14.848 193.042 14.4C193.33 13.952 193.474 13.448 193.474 12.888V10.632C193.474 10.056 193.33 9.552 193.042 9.12C192.754 8.672 192.37 8.32 191.89 8.064C191.41 7.808 190.85 7.68 190.21 7.68C189.202 7.68 188.418 8.032 187.858 8.736C187.314 9.44 187.042 10.448 187.042 11.76C187.042 13.072 187.314 14.08 187.858 14.784C188.418 15.488 189.202 15.84 190.21 15.84Z" fill="#37A2E7"/>
</svg>
