<svg width="24" height="24" viewBox="0 0 24 24" fill="none" xmlns="http://www.w3.org/2000/svg">
<path d="M17.9199 5.81009C17.5041 5.94736 17.0642 5.99603 16.6284 5.95297C16.1927 5.90991 15.7708 5.77608 15.3899 5.56009C15.0103 5.34241 14.6807 5.04746 14.4223 4.69432C14.1639 4.34119 13.9825 3.93775 13.8899 3.51009C13.8529 3.31424 13.7577 3.13409 13.6168 2.99316C13.4759 2.85222 13.2957 2.75706 13.0999 2.72009C12.086 2.55844 11.0527 2.56182 10.0399 2.73009C9.84597 2.76912 9.66813 2.86516 9.52916 3.00591C9.3902 3.14666 9.29643 3.3257 9.25988 3.52009C9.16968 3.94999 8.99052 4.35625 8.7339 4.71275C8.47729 5.06925 8.14891 5.36811 7.76988 5.59009C7.39127 5.81152 6.96998 5.95008 6.53386 5.99662C6.09773 6.04316 5.65669 5.99663 5.23988 5.86009C5.05376 5.79634 4.85297 5.7889 4.66264 5.8387C4.47232 5.88851 4.30091 5.99334 4.16988 6.14009C3.52624 6.93979 3.01631 7.83842 2.65988 8.80109C2.5969 8.9874 2.59186 9.18841 2.64542 9.37764C2.69897 9.56687 2.80861 9.73543 2.95988 9.86109C3.28325 10.1578 3.54238 10.5176 3.72125 10.9184C3.90012 11.3191 3.99495 11.7523 3.99988 12.1911C4.00003 12.6298 3.90848 13.0637 3.7311 13.4649C3.55372 13.8662 3.29444 14.2259 2.96988 14.5211C2.8208 14.6483 2.71343 14.8174 2.66171 15.0065C2.61 15.1955 2.61633 15.3957 2.67988 15.5811C2.86302 16.061 3.0837 16.5258 3.33988 16.9711C3.59847 17.4143 3.89278 17.8357 4.21988 18.2311C4.35091 18.3778 4.52232 18.4827 4.71264 18.5325C4.90297 18.5823 5.10376 18.5749 5.28988 18.5111C5.70526 18.3725 6.1452 18.3231 6.58097 18.3661C7.01674 18.4091 7.43855 18.5435 7.81885 18.7605C8.19916 18.9776 8.52941 19.2724 8.78806 19.6257C9.0467 19.9791 9.22792 20.383 9.31988 20.8111C9.3567 21.0043 9.45077 21.182 9.58986 21.3211C9.72895 21.4602 9.90665 21.5543 10.0999 21.5911C11.1137 21.7528 12.1471 21.7494 13.1599 21.5811C13.3538 21.5421 13.5316 21.446 13.6706 21.3053C13.8096 21.1645 13.9033 20.9855 13.9399 20.7911C14.0301 20.3612 14.2092 19.9549 14.4659 19.5984C14.7225 19.2419 15.0508 18.9431 15.4299 18.7211C15.8085 18.4997 16.2298 18.3611 16.6659 18.3146C17.102 18.268 17.5431 18.3146 17.9599 18.4511C18.1466 18.5173 18.349 18.525 18.5402 18.4732C18.7313 18.4214 18.9022 18.3125 19.0299 18.1611C19.6729 17.3596 20.1858 16.462 20.5499 15.5011C20.6129 15.3148 20.6179 15.1138 20.5643 14.9245C20.5108 14.7353 20.4011 14.5668 20.2499 14.4411C19.9215 14.1499 19.6582 13.7928 19.4772 13.3929C19.2963 12.993 19.2018 12.5595 19.1999 12.1206C19.198 11.6817 19.2888 11.2473 19.4663 10.8459C19.6438 10.4445 19.904 10.0851 20.2299 9.79109C20.379 9.66388 20.4863 9.49477 20.538 9.30573C20.5898 9.1167 20.5834 8.91648 20.5199 8.73109C20.3367 8.25114 20.1161 7.78637 19.8599 7.34109C19.6081 6.89908 19.3169 6.48071 18.9899 6.09109C18.859 5.94417 18.6876 5.83914 18.4973 5.78916C18.3069 5.73917 18.1061 5.74645 17.9199 5.81009Z" stroke="#282454" stroke-width="1.2" stroke-miterlimit="10" stroke-linecap="round" stroke-linejoin="round"/>
<path d="M11.6099 15.1202C11.0245 15.1202 10.4522 14.9466 9.96542 14.6213C9.47865 14.2961 9.09926 13.8338 8.87522 13.2929C8.65118 12.7521 8.59257 12.1569 8.70678 11.5827C8.82099 11.0085 9.1029 10.4811 9.51687 10.0672C9.93083 9.6532 10.4583 9.37128 11.0324 9.25707C11.6066 9.14286 12.2018 9.20148 12.7426 9.42551C13.2835 9.64955 13.7458 10.0289 14.0711 10.5157C14.3963 11.0025 14.5699 11.5748 14.5699 12.1602C14.5699 12.9452 14.258 13.6981 13.7029 14.2532C13.1478 14.8083 12.3949 15.1202 11.6099 15.1202V15.1202Z" stroke="#282454" stroke-width="1.2" stroke-miterlimit="10" stroke-linecap="round" stroke-linejoin="round"/>
</svg>
