<svg width="22" height="23" viewBox="0 0 22 23" fill="none" xmlns="http://www.w3.org/2000/svg">
<path d="M8.09995 20.5641V17.3841C8.10061 17.1902 8.13943 16.9984 8.21422 16.8196C8.289 16.6408 8.39827 16.4784 8.53579 16.3418C8.67332 16.2052 8.8364 16.0971 9.01573 16.0235C9.19506 15.9499 9.38712 15.9124 9.58095 15.9131H12.57C12.9622 15.9129 13.3385 16.0678 13.617 16.3441C13.7543 16.4802 13.8634 16.6422 13.9379 16.8207C14.0124 16.9992 14.0508 17.1906 14.051 17.3841V20.5631C14.0499 20.7301 14.0821 20.8957 14.1456 21.0502C14.2092 21.2047 14.3027 21.345 14.421 21.4631C14.6612 21.7026 14.9867 21.837 15.326 21.8371H17.365C18.3159 21.8399 19.2294 21.4664 19.906 20.7981C20.2393 20.4685 20.5041 20.076 20.6848 19.6435C20.8655 19.2109 20.9587 18.7468 20.959 18.2781V9.22105C20.9593 8.84276 20.8761 8.46905 20.7153 8.12662C20.5546 7.78418 20.3202 7.48145 20.029 7.24005L13.091 1.74005C12.5046 1.27312 11.7737 1.02525 11.0243 1.03913C10.2748 1.053 9.55366 1.32774 8.98495 1.81605L2.20595 7.24005C1.90091 7.47411 1.6522 7.77355 1.47811 8.11637C1.30402 8.45919 1.20897 8.83667 1.19995 9.22105L1.19995 18.2711C1.20152 18.7414 1.29574 19.2068 1.47722 19.6408C1.6587 20.0747 1.92389 20.4686 2.25763 20.8C2.59138 21.1315 2.98715 21.3939 3.42234 21.5723C3.85752 21.7508 4.3236 21.8418 4.79395 21.8401H6.78695C7.12497 21.8411 7.44972 21.7086 7.69042 21.4712C7.93112 21.2339 8.06826 20.9111 8.07195 20.5731L8.09995 20.5641Z" stroke="#37A2E7" stroke-width="1.2"/>
</svg>
