<svg width="107" height="107" viewBox="0 0 107 107" fill="none" xmlns="http://www.w3.org/2000/svg">
<g id="Group 1466">
<path id="Vector" d="M107.003 54.7737C106.472 57.2301 104.881 58.9886 103.151 60.6913C88.9427 74.8435 74.7626 89.0236 60.6104 103.232C58.8518 104.99 57.0653 106.553 54.5252 107C53.8274 107 53.1295 107 52.4317 107C49.9474 106.553 48.1609 105.018 46.4303 103.287C31.9152 88.7166 17.3164 74.1457 2.74549 59.5469C-0.185439 56.616 -0.827452 52.8197 1.09859 49.5817C1.48938 48.9118 2.01973 48.2698 2.57801 47.7115C13.4364 36.8252 24.2948 25.9668 35.1532 15.1085C35.3206 14.941 35.4881 14.7456 35.6835 14.606C36.4093 14.0757 37.135 14.0757 37.7491 14.7177C38.3911 15.3318 38.3911 16.0854 37.8608 16.7833C37.6375 17.0903 37.3304 17.3415 37.0792 17.6207C26.4162 28.2837 15.7532 38.9467 5.09023 49.6097C2.46635 52.2335 2.46635 54.8574 5.11814 57.4813C19.9123 72.3034 34.7624 87.1534 49.5845 101.976C52.1525 104.544 54.8602 104.544 57.4003 102.003C72.3062 87.0976 87.1841 72.1917 102.09 57.3138C103.541 55.8623 104.267 54.2154 103.625 52.2335C103.374 51.452 102.872 50.6425 102.285 50.0284C87.212 34.8992 72.1387 19.7979 57.0374 4.7246C54.9718 2.65899 52.0688 2.68691 49.9474 4.75251C47.9097 6.76229 45.9278 8.79998 43.8622 10.7818C43.4714 11.1447 42.8294 11.4797 42.327 11.4239C41.8803 11.3959 41.2383 10.8935 41.1267 10.4748C40.9871 9.97236 41.1267 9.16286 41.4896 8.79998C43.7226 6.45524 45.9836 4.13842 48.3563 1.93324C51.2314 -0.690636 55.7534 -0.606896 58.6843 1.96115C59.0472 2.2682 59.3822 2.63108 59.745 2.96604C74.1764 17.3974 88.6077 31.8287 103.039 46.26C104.77 47.9907 106.417 49.7492 106.975 52.2335C107.003 53.0989 107.003 53.9363 107.003 54.7737Z" fill="#37A2E7"/>
<path id="Vector_2" d="M53.4924 9.60963C54.6648 9.58172 55.558 10.0842 56.3675 10.8937C58.7122 13.2663 61.0849 15.639 63.4576 17.9837C74.2601 28.7863 85.0906 39.6167 95.8932 50.4193C98.0704 52.5966 98.0704 54.5226 95.8652 56.7278C86.2351 66.358 76.6049 75.9882 66.9747 85.6183C66.8072 85.7858 66.6397 85.9812 66.4443 86.1208C65.6348 86.8465 64.7695 86.8745 64.1275 86.2045C63.5413 85.5904 63.5692 84.6693 64.2112 83.9435C64.4066 83.7481 64.602 83.5527 64.7974 83.3573C74.3718 73.783 83.9461 64.1807 93.5484 54.6063C94.6091 53.5456 94.6091 53.5456 93.5484 52.4849C80.5686 39.5051 67.5888 26.5253 54.609 13.5454C53.5482 12.4847 53.5482 12.4847 52.4875 13.5175C39.5077 26.4974 26.5279 39.4772 13.5481 52.457C12.4594 53.5456 12.4594 53.5456 13.576 54.6622C26.5279 67.6141 39.4798 80.566 52.4317 93.5179C53.5482 94.6344 53.5482 94.6344 54.6369 93.5458C55.7813 92.4014 56.8979 91.2848 58.0423 90.1403C58.8797 89.3029 59.8567 89.2192 60.5266 89.8891C61.1966 90.5591 61.1128 91.4802 60.2475 92.3734C58.9635 93.6854 57.6515 94.9973 56.3396 96.2813C54.6369 97.9561 52.4596 97.9561 50.7848 96.2534C37.47 82.9666 24.1831 69.6518 10.8963 56.3649C9.16562 54.6063 9.16562 52.4849 10.8963 50.7263C24.1831 37.4116 37.4979 24.1247 50.7848 10.8099C51.4826 10.0283 52.3759 9.58172 53.4924 9.60963Z" fill="#37A2E7"/>
<path id="Vector_3" d="M59.773 45.7855C59.773 49.2468 59.8288 52.6802 59.7451 56.1415C59.6892 58.6258 58.489 60.5518 56.1442 61.5567C53.7436 62.5895 51.4268 62.3104 49.3891 60.6635C47.9934 59.519 47.2398 57.9838 47.2398 56.1973C47.1839 49.2189 47.156 42.2684 47.2398 35.29C47.2677 31.8287 50.0311 29.2886 53.4645 29.2886C56.9537 29.2886 59.6892 31.8287 59.7451 35.3458C59.8567 38.8071 59.773 42.2963 59.773 45.7855ZM56.6467 45.6739C56.6467 42.3242 56.6746 39.0025 56.6467 35.6529C56.6187 33.6431 55.2789 32.3312 53.3529 32.4149C51.5664 32.4707 50.3382 33.7827 50.3382 35.7087C50.3103 40.119 50.3382 44.5294 50.3382 48.9677C50.3382 51.2566 50.3103 53.5455 50.3382 55.8623C50.3661 57.6767 51.5943 58.9328 53.297 58.9886C55.251 59.0724 56.6187 57.8163 56.6187 55.8065C56.6746 52.4289 56.6467 49.0514 56.6467 45.6739Z" fill="#37A2E7"/>
<path id="Vector_4" d="M53.5203 65.2134C56.9816 65.2134 59.773 68.0047 59.8009 71.4381C59.8009 75.0948 57.1212 77.8024 53.4924 77.7745C49.8637 77.7745 47.2119 75.039 47.2119 71.3823C47.2398 67.9768 50.059 65.2134 53.5203 65.2134ZM56.6467 71.5777C56.6467 69.7633 55.3347 68.3955 53.5203 68.3676C51.706 68.3397 50.3382 69.7075 50.3382 71.5219C50.3382 73.2525 51.706 74.6482 53.4087 74.6761C55.1952 74.704 56.6467 73.3362 56.6467 71.5777Z" fill="#37A2E7"/>
<path id="Vector_5" d="M22.927 53.5176C24.4344 55.025 25.858 56.4486 27.2816 57.9001C28.1469 58.7654 28.2864 59.7144 27.6444 60.3844C26.9745 61.1101 25.9975 61.0264 25.1043 60.1332C23.3457 58.4025 21.5872 56.644 19.8565 54.8854C18.9075 53.9363 18.9075 53.1548 19.8845 52.1778C21.6709 50.3634 23.4574 48.5769 25.2718 46.7905C26.0534 46.0089 27.0303 45.953 27.6723 46.623C28.3144 47.2929 28.2585 48.2141 27.449 49.0235C25.9975 50.503 24.4902 51.9824 22.927 53.5176Z" fill="#37A2E7"/>
<path id="Vector_6" d="M84.1695 53.5176C82.5784 51.9545 81.0431 50.4751 79.5637 48.9677C78.7821 48.1861 78.7821 47.2092 79.5079 46.5951C80.122 46.0368 80.9873 46.0368 81.6572 46.6788C83.5833 48.549 85.4814 50.4471 87.3516 52.3732C88.0494 53.0989 88.0494 53.9643 87.3516 54.69C85.4814 56.616 83.5833 58.5142 81.6572 60.3844C80.9315 61.1101 79.9545 61.0822 79.3404 60.4123C78.7821 59.7982 78.81 58.8491 79.48 58.1792C80.9873 56.644 82.5226 55.1366 84.1695 53.5176Z" fill="#37A2E7"/>
</g>
</svg>
