<svg width="18" height="23" viewBox="0 0 18 23" fill="none" xmlns="http://www.w3.org/2000/svg">
<path d="M9.37086 11.4981C12.1152 11.4981 14.3399 9.27336 14.3399 6.52906C14.3399 3.78476 12.1152 1.56006 9.37086 1.56006C6.62655 1.56006 4.40186 3.78476 4.40186 6.52906C4.40186 9.27336 6.62655 11.4981 9.37086 11.4981Z" stroke="#282454" stroke-width="1.5" stroke-miterlimit="10" stroke-linecap="round" stroke-linejoin="round"/>
<path d="M1.48902 18.4091C1.4882 18.0601 1.56649 17.7154 1.71802 17.4011C2.18902 16.4491 3.53602 15.9451 4.65002 15.7161C5.45385 15.544 6.26891 15.4294 7.08902 15.3731C8.60606 15.2389 10.132 15.2389 11.649 15.3731C12.4683 15.4303 13.2826 15.5446 14.086 15.7151C15.2 15.9441 16.541 16.4001 17.018 17.4001C17.1685 17.7169 17.2465 18.0633 17.2465 18.4141C17.2465 18.7648 17.1685 19.1112 17.018 19.4281C16.542 20.4281 15.2 20.8841 14.086 21.1031C13.2837 21.2815 12.4691 21.3992 11.649 21.4551C10.4142 21.5598 9.17352 21.5789 7.93602 21.5121C7.65252 21.5219 7.36876 21.5031 7.08902 21.4561C6.27123 21.4009 5.45885 21.2832 4.65902 21.1041C3.53602 20.8851 2.20302 20.4281 1.71802 19.4291C1.56707 19.1102 1.48885 18.7618 1.48902 18.4091V18.4091Z" stroke="#282454" stroke-width="1.5" stroke-miterlimit="10" stroke-linecap="round" stroke-linejoin="round"/>
</svg>
