<svg width="21" height="25" viewBox="0 0 21 25" fill="none" xmlns="http://www.w3.org/2000/svg">
<g id="Frame" clip-path="url(#clip0_1106_1305)">
<path id="Vector" d="M8.55368 25.0001C7.9587 24.8241 7.35005 24.6839 6.76663 24.4647C4.84645 23.7465 3.18241 22.4726 1.98573 20.8046C1.9626 20.773 1.94263 20.7382 1.90479 20.6792H6.45547C6.90223 22.2537 7.47094 23.7829 8.64829 25.0001H8.55368Z" fill="#37A2E7"/>
<path id="Vector_2" d="M12.3528 24.9999C12.9305 24.4142 13.394 23.7254 13.7194 22.9691C14.0347 22.2176 14.308 21.4452 14.6045 20.6685H19.1184C19.0038 20.8234 18.9144 20.9541 18.8167 21.0784C17.2083 23.1092 15.1448 24.4055 12.6145 24.9482C12.5612 24.9619 12.5089 24.9792 12.4579 24.9999H12.3528Z" fill="#37A2E7"/>
<path id="Vector_3" d="M11.8366 5.31579C11.8366 6.7596 11.4824 7.91253 10.9641 9.01804C9.92972 11.2217 8.40336 13.0565 6.65415 14.7195C6.45232 14.9113 6.33143 14.9134 6.12854 14.7195C4.35515 13.0333 2.80883 11.1732 1.77654 8.92952C1.23517 7.75234 0.875653 6.52458 0.954494 5.20724C1.06592 3.36296 1.88376 1.89386 3.42694 0.896891C6.13064 -0.851486 9.57125 0.0284986 11.1554 2.83286C11.5909 3.58834 11.8254 4.44331 11.8366 5.31579ZM8.60414 5.48441C8.60414 4.2577 7.58237 3.22384 6.38189 3.24071C5.79565 3.25221 5.237 3.49253 4.82475 3.91055C4.4125 4.32857 4.17916 4.89132 4.17435 5.47914C4.17709 6.07096 4.41232 6.63787 4.82906 7.05705C5.2458 7.47622 5.81049 7.71391 6.40081 7.71862C6.98696 7.71033 7.54639 7.47148 7.95854 7.05356C8.37069 6.63564 8.60254 6.0721 8.60414 5.48441Z" fill="#37A2E7"/>
<path id="Vector_4" d="M13.549 19.3777H7.45201C7.23364 18.3077 7.09693 17.2226 7.04309 16.1317C7.04289 16.0636 7.06931 15.9982 7.11668 15.9494C7.35215 15.7386 7.59357 15.5356 7.84096 15.3403C7.91259 15.2799 8.00105 15.2431 8.0943 15.2349C10.0264 15.23 11.9585 15.23 13.8907 15.2349C13.9138 15.2349 13.938 15.2412 13.9958 15.2486C13.972 16.6357 13.8225 18.0177 13.549 19.3777Z" fill="#37A2E7"/>
<path id="Vector_5" d="M20.9926 13.949H15.3161C15.1753 12.5716 15.0344 11.2016 14.8956 9.80518C14.9366 9.80518 15.0228 9.7957 15.1059 9.7957C16.6144 9.7957 18.1239 9.7957 19.6324 9.78937C19.7107 9.78084 19.7895 9.79952 19.8557 9.8423C19.922 9.88509 19.9715 9.94937 19.9961 10.0244C20.5641 11.2235 20.9035 12.5184 20.9968 13.8426C20.9977 13.8781 20.9963 13.9137 20.9926 13.949Z" fill="#37A2E7"/>
<path id="Vector_6" d="M14.8956 19.3819C15.0375 17.9971 15.1784 16.6323 15.3161 15.2476H20.9926C20.9477 16.1837 20.7678 17.1084 20.4586 17.9929C20.3135 18.4144 20.1285 18.8212 19.9467 19.2291C19.9276 19.2684 19.8998 19.3029 19.8653 19.3297C19.8309 19.3566 19.7907 19.3752 19.748 19.384C18.1333 19.3924 16.5187 19.3893 14.904 19.384C14.8967 19.3872 14.882 19.3777 14.8956 19.3819Z" fill="#37A2E7"/>
<path id="Vector_7" d="M6.10646 19.3829C6.07492 19.3829 6.00134 19.3913 5.93196 19.3913C4.3993 19.3913 2.86663 19.3913 1.33397 19.3913C1.26767 19.3994 1.20062 19.3844 1.14412 19.3486C1.08763 19.3129 1.04515 19.2588 1.02386 19.1953C0.429462 17.9532 0.0820542 16.6069 0.0010376 15.2317H0.242814C1.66195 15.2317 3.08108 15.2317 4.50021 15.2317C4.64333 15.2329 4.78015 15.2909 4.88075 15.3929C5.13094 15.6037 5.40636 15.7955 5.666 15.9989C5.71016 16.0337 5.76587 16.0864 5.77113 16.1349C5.88781 17.2109 5.99293 18.2911 6.10646 19.3829Z" fill="#37A2E7"/>
<path id="Vector_8" d="M13.2337 20.6748C12.8794 21.8341 12.4736 22.9543 11.6695 23.8744C11.5294 24.0322 11.3701 24.1717 11.1954 24.2896C10.7034 24.6268 10.1294 24.6142 9.69949 24.2011C9.35943 23.8675 9.05309 23.5011 8.78494 23.1071C8.39914 22.5528 7.9282 21.3377 7.78839 20.6748H13.2337Z" fill="#37A2E7"/>
<path id="Vector_9" d="M9.15918 13.9492C9.3053 13.7743 9.42303 13.633 9.53972 13.4908C10.4374 12.4053 11.249 11.2608 11.8808 9.99717C11.9043 9.92893 11.9503 9.87082 12.0113 9.83247C12.0723 9.79413 12.1446 9.77787 12.2161 9.78639C12.5882 9.80009 12.9625 9.80115 13.3346 9.78639C13.5154 9.77901 13.5627 9.85068 13.5942 10.0151C13.8255 11.27 13.9611 12.5408 14 13.8164C13.9994 13.8594 13.9966 13.9023 13.9916 13.945L9.15918 13.9492Z" fill="#37A2E7"/>
<path id="Vector_10" d="M12.9751 4.32617C15.559 5.00171 17.5563 6.38438 19.1068 8.5111H14.5582C14.4258 8.10852 14.3238 7.68697 14.1535 7.29493C13.8476 6.58989 13.486 5.90804 13.179 5.203C13.0697 4.95217 13.0497 4.6613 12.9751 4.32617Z" fill="#37A2E7"/>
<path id="Vector_11" d="M0.0010376 13.9407C0.0851709 12.6271 0.412037 11.3406 0.964994 10.1467C1.70843 11.5053 2.59892 12.7776 3.62035 13.9407H0.0010376Z" fill="#37A2E7"/>
<path id="Vector_12" d="M12.5472 8.50045C12.6524 8.14213 12.7575 7.81016 12.8763 7.41602C13.0066 7.80806 13.1201 8.14846 13.2389 8.50045H12.5472Z" fill="#37A2E7"/>
</g>
<defs>
<clipPath id="clip0_1106_1305">
<rect width="21" height="25" fill="white"/>
</clipPath>
</defs>
</svg>
