<svg width="24" height="24" viewBox="0 0 24 24" fill="none" xmlns="http://www.w3.org/2000/svg">
<g id="Group 1524">
<circle id="Ellipse 24" cx="12" cy="12" r="11" stroke="#37A2E7" stroke-width="2"/>
<path id="Vector" d="M21.4286 16.2691C21.4286 14.6696 20.9502 16.1288 20.9512 14.529C20.9545 14.4961 20.9476 14.463 20.9315 14.4345C20.9155 14.4059 20.8911 14.3834 20.8619 14.3701C20.3778 14.0902 18.3707 12.9147 18.034 12.7177V18.481H17.3054V11.0029H16.6424V8.50464H15.6508V11.0061H14.9825V16.2691H14.2207V6.85718H11.0694V7.02701C11.0694 8.76169 11.066 15.508 11.066 16.2691H10.4066C10.4066 15.5159 10.3967 12.8253 10.3967 12.6732H7.97365V17.0563C7.82061 17.0563 7.17436 17.3626 7.19533 17.2281C7.20397 17.1737 7.2197 12.5245 7.2197 10.4322C7.2197 10.3029 7.2197 10.1733 7.21577 10.044C7.21073 9.99691 7.20196 9.95038 7.18956 9.90483C7.14606 9.9157 7.09784 9.91733 7.05853 9.93853C6.37926 10.3102 5.70236 10.6866 5.02204 11.0561C4.9277 11.1072 4.89678 11.1664 4.89704 11.2754C4.90019 13.1365 4.90097 14.9978 4.8994 16.8591V17.0368H4.01782V15.6673H1.71429L5.38207 20.4885L12 23.5715L20.9706 19.3279L21.4286 16.2691Z" fill="#37A2E7"/>
</g>
</svg>
