<svg width="258" height="246" viewBox="0 0 258 246" fill="none" xmlns="http://www.w3.org/2000/svg">
<g filter="url(#filter0_d_2_38)">
<path d="M68.7777 48.5524C68.1376 48.5524 67.6255 48.0399 67.6255 47.3994V7.87855C67.6255 7.23801 68.1376 6.72559 68.7777 6.72559C69.4178 6.72559 69.9299 7.23801 69.9299 7.87855V47.3994C69.9299 48.0399 69.4178 48.5524 68.7777 48.5524Z" fill="url(#paint0_linear_2_38)"/>
<path d="M58.8563 41.8268C58.2162 41.8268 57.7041 41.3144 57.7041 40.6738V1.15296C57.7041 0.512428 58.2162 0 58.8563 0C59.4964 0 60.0085 0.512428 60.0085 1.15296V40.6738C59.9445 41.3144 59.4324 41.8268 58.8563 41.8268Z" fill="url(#paint1_linear_2_38)"/>
<path d="M78.7635 62.0675C78.1234 62.0675 77.6113 61.5551 77.6113 60.9145V21.3937C77.6113 20.7531 78.1234 20.2407 78.7635 20.2407C79.4036 20.2407 79.9157 20.7531 79.9157 21.3937V60.9145C79.9157 61.5551 79.4036 62.0675 78.7635 62.0675Z" fill="url(#paint2_linear_2_38)"/>
<path d="M88.7489 81.9242C88.1088 81.9242 87.5967 81.4118 87.5967 80.7712V41.2504C87.5967 40.6098 88.1088 40.0974 88.7489 40.0974C89.389 40.0974 89.901 40.6098 89.901 41.2504V80.7712C89.901 81.4758 89.389 81.9242 88.7489 81.9242Z" fill="url(#paint3_linear_2_38)"/>
<path d="M98.7347 101.845C98.0946 101.845 97.5825 101.332 97.5825 100.692V61.1708C97.5825 60.5303 98.0946 60.0178 98.7347 60.0178C99.3748 60.0178 99.8869 60.5303 99.8869 61.1708V100.692C99.8229 101.332 99.3748 101.845 98.7347 101.845Z" fill="url(#paint4_linear_2_38)"/>
<path d="M108.72 119.139C108.08 119.139 107.568 118.627 107.568 117.986V78.4652C107.568 77.8247 108.08 77.3123 108.72 77.3123C109.36 77.3123 109.872 77.8247 109.872 78.4652V117.986C109.808 118.627 109.296 119.139 108.72 119.139Z" fill="url(#paint5_linear_2_38)"/>
<path d="M118.641 131.437C118.001 131.437 117.489 130.925 117.489 130.284V90.7636C117.489 90.123 118.001 89.6106 118.641 89.6106C119.282 89.6106 119.794 90.123 119.794 90.7636V130.284C119.794 130.925 119.282 131.437 118.641 131.437Z" fill="url(#paint6_linear_2_38)"/>
<path d="M188.476 48.5524C187.836 48.5524 187.324 48.0399 187.324 47.3994V7.87855C187.324 7.23801 187.836 6.72559 188.476 6.72559C189.117 6.72559 189.629 7.23801 189.629 7.87855V47.3994C189.629 48.0399 189.117 48.5524 188.476 48.5524Z" fill="url(#paint7_linear_2_38)"/>
<path d="M198.462 41.8268C197.822 41.8268 197.31 41.3144 197.31 40.6738V1.15296C197.31 0.512428 197.822 0 198.462 0C199.102 0 199.614 0.512428 199.614 1.15296V40.6738C199.55 41.3144 199.102 41.8268 198.462 41.8268Z" fill="url(#paint8_linear_2_38)"/>
<path d="M178.491 62.0675C177.851 62.0675 177.339 61.5551 177.339 60.9145V21.3937C177.339 20.7531 177.851 20.2407 178.491 20.2407C179.131 20.2407 179.643 20.7531 179.643 21.3937V60.9145C179.643 61.5551 179.131 62.0675 178.491 62.0675Z" fill="url(#paint9_linear_2_38)"/>
<path d="M168.505 81.9242C167.865 81.9242 167.353 81.4118 167.353 80.7712V41.2504C167.353 40.6098 167.865 40.0974 168.505 40.0974C169.145 40.0974 169.657 40.6098 169.657 41.2504V80.7712C169.657 81.4758 169.145 81.9242 168.505 81.9242Z" fill="url(#paint10_linear_2_38)"/>
<path d="M158.584 101.845C157.944 101.845 157.432 101.332 157.432 100.692V61.1708C157.432 60.5303 157.944 60.0178 158.584 60.0178C159.224 60.0178 159.736 60.5303 159.736 61.1708V100.692C159.672 101.332 159.16 101.845 158.584 101.845Z" fill="url(#paint11_linear_2_38)"/>
<path d="M148.598 119.139C147.958 119.139 147.446 118.627 147.446 117.986V78.4652C147.446 77.8247 147.958 77.3123 148.598 77.3123C149.239 77.3123 149.751 77.8247 149.751 78.4652V117.986C149.687 118.627 149.239 119.139 148.598 119.139Z" fill="url(#paint12_linear_2_38)"/>
<path d="M138.613 131.437C137.973 131.437 137.46 130.925 137.46 130.284V90.7636C137.46 90.123 137.973 89.6106 138.613 89.6106C139.253 89.6106 139.765 90.123 139.765 90.7636V130.284C139.765 130.925 139.253 131.437 138.613 131.437Z" fill="url(#paint13_linear_2_38)"/>
<path d="M128.627 142.198C127.987 142.198 127.475 141.686 127.475 141.045V101.524C127.475 100.884 127.987 100.371 128.627 100.371C129.267 100.371 129.779 100.884 129.779 101.524V141.045C129.779 141.686 129.267 142.198 128.627 142.198Z" fill="url(#paint14_linear_2_38)"/>
<path d="M71.2745 70.0741C70.0583 70.0741 69.0342 69.0493 69.0342 67.8323V28.3114C69.0342 27.0944 70.0583 26.0696 71.2745 26.0696C72.4907 26.0696 73.5149 27.0944 73.5149 28.3114V67.8323C73.5789 69.0493 72.5547 70.0741 71.2745 70.0741Z" fill="url(#paint15_linear_2_38)"/>
<path d="M61.3531 63.2846C60.137 63.2846 59.1128 62.2598 59.1128 61.0428V21.5219C59.1128 20.3049 60.137 19.28 61.3531 19.28C62.5693 19.28 63.5935 20.3049 63.5935 21.5219V61.0428C63.5935 62.3238 62.5693 63.2846 61.3531 63.2846Z" fill="url(#paint16_linear_2_38)"/>
<path d="M81.2604 83.5895C80.0442 83.5895 79.02 82.5647 79.02 81.3477V41.8268C79.02 40.6098 80.0442 39.585 81.2604 39.585C82.4765 39.585 83.5007 40.6098 83.5007 41.8268V81.3477C83.5007 82.5647 82.5406 83.5895 81.2604 83.5895Z" fill="url(#paint17_linear_2_38)"/>
<path d="M91.2457 103.446C90.0295 103.446 89.0054 102.421 89.0054 101.204V61.6833C89.0054 60.4663 90.0295 59.4414 91.2457 59.4414C92.4619 59.4414 93.4861 60.4663 93.4861 61.6833V101.204C93.4861 102.421 92.4619 103.446 91.2457 103.446Z" fill="url(#paint18_linear_2_38)"/>
<path d="M101.232 123.302C100.015 123.302 98.9912 122.278 98.9912 121.061V81.5397C98.9912 80.3227 100.015 79.2979 101.232 79.2979C102.448 79.2979 103.472 80.3227 103.472 81.5397V121.061C103.472 122.342 102.448 123.302 101.232 123.302Z" fill="url(#paint19_linear_2_38)"/>
<path d="M111.217 140.661C110.001 140.661 108.977 139.636 108.977 138.419V98.8981C108.977 97.6811 110.001 96.6562 111.217 96.6562C112.433 96.6562 113.457 97.6811 113.457 98.8981V138.419C113.457 139.636 112.433 140.661 111.217 140.661Z" fill="url(#paint20_linear_2_38)"/>
<path d="M121.138 152.895C119.922 152.895 118.898 151.87 118.898 150.653V111.132C118.898 109.915 119.922 108.891 121.138 108.891C122.354 108.891 123.379 109.915 123.379 111.132V150.653C123.443 151.934 122.419 152.895 121.138 152.895Z" fill="url(#paint21_linear_2_38)"/>
<path d="M190.973 70.0741C189.757 70.0741 188.733 69.0493 188.733 67.8323V28.3114C188.733 27.0944 189.757 26.0696 190.973 26.0696C192.189 26.0696 193.214 27.0944 193.214 28.3114V67.8323C193.214 69.0493 192.189 70.0741 190.973 70.0741Z" fill="url(#paint22_linear_2_38)"/>
<path d="M200.959 63.2846C199.743 63.2846 198.719 62.2598 198.719 61.0428V21.5219C198.719 20.3049 199.743 19.28 200.959 19.28C202.175 19.28 203.199 20.3049 203.199 21.5219V61.0428C203.199 62.3238 202.175 63.2846 200.959 63.2846Z" fill="url(#paint23_linear_2_38)"/>
<path d="M180.988 83.5895C179.772 83.5895 178.748 82.5647 178.748 81.3477V41.8268C178.748 40.6098 179.772 39.585 180.988 39.585C182.204 39.585 183.228 40.6098 183.228 41.8268V81.3477C183.228 82.5647 182.268 83.5895 180.988 83.5895Z" fill="url(#paint24_linear_2_38)"/>
<path d="M171.002 103.446C169.786 103.446 168.762 102.421 168.762 101.204V61.6833C168.762 60.4663 169.786 59.4414 171.002 59.4414C172.218 59.4414 173.242 60.4663 173.242 61.6833V101.204C173.306 102.421 172.282 103.446 171.002 103.446Z" fill="url(#paint25_linear_2_38)"/>
<path d="M161.081 123.302C159.864 123.302 158.84 122.278 158.84 121.061V81.5397C158.84 80.3227 159.864 79.2979 161.081 79.2979C162.297 79.2979 163.321 80.3227 163.321 81.5397V121.061C163.321 122.342 162.297 123.302 161.081 123.302Z" fill="url(#paint26_linear_2_38)"/>
<path d="M151.095 140.661C149.879 140.661 148.855 139.636 148.855 138.419V98.8981C148.855 97.6811 149.879 96.6562 151.095 96.6562C152.312 96.6562 153.336 97.6811 153.336 98.8981V138.419C153.336 139.636 152.312 140.661 151.095 140.661Z" fill="url(#paint27_linear_2_38)"/>
<path d="M141.109 152.895C139.893 152.895 138.869 151.87 138.869 150.653V111.132C138.869 109.915 139.893 108.891 141.109 108.891C142.326 108.891 143.35 109.915 143.35 111.132V150.653C143.35 151.934 142.326 152.895 141.109 152.895Z" fill="url(#paint28_linear_2_38)"/>
<path d="M131.124 163.656C129.908 163.656 128.884 162.631 128.884 161.414V121.893C128.884 120.676 129.908 119.651 131.124 119.651C132.34 119.651 133.364 120.676 133.364 121.893V161.414C133.364 162.695 132.404 163.656 131.124 163.656Z" fill="url(#paint29_linear_2_38)"/>
<path d="M43.6222 189.918C42.9821 189.918 42.406 190.302 42.214 190.879L24.5472 232.065L6.94446 190.879C6.68842 190.302 6.11232 189.918 5.53624 189.918C4.70411 189.918 4 190.623 4 191.455C4 191.647 4.06401 191.904 4.12802 192.096L23.203 236.613C23.395 237.125 23.9711 237.51 24.4832 237.574H24.6112C25.1873 237.574 25.7634 237.189 26.0194 236.613L45.0944 192.096C45.1584 191.904 45.2224 191.647 45.2224 191.455C45.1584 190.623 44.5183 189.918 43.6222 189.918Z" fill="white"/>
<path d="M61.9933 215.283H90.6057C91.4378 215.283 92.142 214.578 92.142 213.746C92.142 212.913 91.4378 212.208 90.6057 212.208H61.9933C61.1611 212.208 60.457 212.913 60.457 213.746C60.457 214.578 61.0971 215.283 61.9933 215.283Z" fill="white"/>
<path d="M93.7422 234.435H61.9933C61.1611 234.435 60.457 235.139 60.457 235.972C60.457 236.805 61.1611 237.509 61.9933 237.509H93.7422C94.5744 237.509 95.2785 236.805 95.2785 235.972C95.2785 235.139 94.5744 234.435 93.7422 234.435Z" fill="white"/>
<path d="M93.7422 189.918H61.9933C61.1611 189.918 60.457 190.623 60.457 191.455C60.457 192.288 61.1611 192.993 61.9933 192.993H93.7422C94.5744 192.993 95.2785 192.288 95.2785 191.455C95.2785 190.623 94.5744 189.918 93.7422 189.918Z" fill="white"/>
<path d="M145.846 215.667C142.134 214.13 137.333 213.169 132.66 212.272L132.468 212.208C128.115 211.376 123.123 210.415 119.666 208.942C118.002 208.237 116.722 207.404 115.889 206.444C115.057 205.483 114.673 204.458 114.673 203.241C114.673 200.935 116.338 198.437 119.09 196.515C122.483 194.209 127.347 192.928 132.788 192.928C139.765 192.928 145.782 194.85 149.239 198.245C149.495 198.565 149.943 198.693 150.327 198.693C151.159 198.693 151.863 197.989 151.863 197.156C151.863 196.772 151.671 196.323 151.351 196.003C147.318 192.096 140.533 189.79 132.788 189.79C125.043 189.79 120.114 192.032 117.362 193.889C113.713 196.387 111.601 199.782 111.601 203.113C111.601 205.099 112.305 206.892 113.649 208.429C114.801 209.71 116.402 210.735 118.514 211.696C122.29 213.297 127.155 214.258 131.956 215.155C136.565 216.052 141.365 216.948 144.758 218.358C146.422 219.062 147.702 219.895 148.535 220.792C149.367 221.688 149.751 222.713 149.751 223.93C149.751 227.517 146.934 229.951 144.566 231.296C141.237 233.218 136.757 234.243 132.212 234.243C124.787 234.243 118.002 232.257 113.073 228.606C112.817 228.414 112.433 228.286 112.113 228.286C111.281 228.286 110.577 228.99 110.577 229.823C110.577 230.335 110.833 230.784 111.217 231.104C116.658 235.139 124.083 237.381 132.148 237.381C137.205 237.381 142.262 236.164 146.038 233.987C150.391 231.488 152.759 227.966 152.759 223.93C152.759 221.945 152.055 220.215 150.711 218.678C149.623 217.653 148.023 216.628 145.846 215.667Z" fill="white"/>
<path d="M205.183 189.918H167.097C166.521 189.918 166.009 190.174 165.753 190.687C165.497 191.199 165.497 191.776 165.753 192.288C166.009 192.8 166.521 193.057 167.097 193.057H184.636V235.972C184.636 236.549 184.892 237.061 185.404 237.317C185.66 237.446 185.916 237.51 186.236 237.51C186.492 237.51 186.812 237.446 187.068 237.317C187.516 237.061 187.837 236.549 187.837 235.972V192.993H205.311C205.887 192.993 206.399 192.736 206.655 192.224C206.911 191.711 206.911 191.135 206.655 190.623C206.271 190.174 205.759 189.918 205.183 189.918Z" fill="white"/>
<path d="M253.191 235.332L234.116 190.879C233.86 190.302 233.284 189.918 232.707 189.918H232.643C232.067 189.982 231.555 190.302 231.299 190.879L212.224 235.396C212.16 235.588 212.096 235.844 212.096 236.036C212.096 236.869 212.8 237.574 213.632 237.574C214.273 237.574 214.849 237.189 215.041 236.613L232.707 195.427L250.374 236.613C250.63 237.189 251.206 237.574 251.782 237.574C252.615 237.574 253.319 236.869 253.319 236.036C253.319 235.78 253.255 235.524 253.191 235.332Z" fill="white"/>
</g>
<defs>
<filter id="filter0_d_2_38" x="0" y="0" width="257.319" height="245.574" filterUnits="userSpaceOnUse" color-interpolation-filters="sRGB">
<feFlood flood-opacity="0" result="BackgroundImageFix"/>
<feColorMatrix in="SourceAlpha" type="matrix" values="0 0 0 0 0 0 0 0 0 0 0 0 0 0 0 0 0 0 127 0" result="hardAlpha"/>
<feOffset dy="4"/>
<feGaussianBlur stdDeviation="2"/>
<feComposite in2="hardAlpha" operator="out"/>
<feColorMatrix type="matrix" values="0 0 0 0 0 0 0 0 0 0 0 0 0 0 0 0 0 0 0.16 0"/>
<feBlend mode="normal" in2="BackgroundImageFix" result="effect1_dropShadow_2_38"/>
<feBlend mode="normal" in="SourceGraphic" in2="effect1_dropShadow_2_38" result="shape"/>
</filter>
<linearGradient id="paint0_linear_2_38" x1="68.8066" y1="48.5613" x2="68.8066" y2="6.76287" gradientUnits="userSpaceOnUse">
<stop stop-color="#00FFFF"/>
<stop offset="0.4981" stop-color="#37A2E7"/>
<stop offset="1" stop-color="#1B1464"/>
</linearGradient>
<linearGradient id="paint1_linear_2_38" x1="58.8345" y1="41.798" x2="58.8345" y2="-0.000191835" gradientUnits="userSpaceOnUse">
<stop stop-color="#00FFFF"/>
<stop offset="0.4981" stop-color="#37A2E7"/>
<stop offset="1" stop-color="#1B1464"/>
</linearGradient>
<linearGradient id="paint2_linear_2_38" x1="78.7799" y1="62.0872" x2="78.7799" y2="20.2892" gradientUnits="userSpaceOnUse">
<stop stop-color="#00FFFF"/>
<stop offset="0.4981" stop-color="#37A2E7"/>
<stop offset="1" stop-color="#1B1464"/>
</linearGradient>
<linearGradient id="paint3_linear_2_38" x1="88.7526" y1="81.9535" x2="88.7526" y2="40.1559" gradientUnits="userSpaceOnUse">
<stop stop-color="#00FFFF"/>
<stop offset="0.4981" stop-color="#37A2E7"/>
<stop offset="1" stop-color="#1B1464"/>
</linearGradient>
<linearGradient id="paint4_linear_2_38" x1="98.7256" y1="101.82" x2="98.7256" y2="60.022" gradientUnits="userSpaceOnUse">
<stop stop-color="#00FFFF"/>
<stop offset="0.4981" stop-color="#37A2E7"/>
<stop offset="1" stop-color="#1B1464"/>
</linearGradient>
<linearGradient id="paint5_linear_2_38" x1="108.698" y1="119.15" x2="108.698" y2="77.3525" gradientUnits="userSpaceOnUse">
<stop stop-color="#00FFFF"/>
<stop offset="0.4981" stop-color="#37A2E7"/>
<stop offset="1" stop-color="#1B1464"/>
</linearGradient>
<linearGradient id="paint6_linear_2_38" x1="118.67" y1="131.408" x2="118.67" y2="89.6105" gradientUnits="userSpaceOnUse">
<stop stop-color="#00FFFF"/>
<stop offset="0.4981" stop-color="#37A2E7"/>
<stop offset="1" stop-color="#1B1464"/>
</linearGradient>
<linearGradient id="paint7_linear_2_38" x1="188.479" y1="48.5613" x2="188.479" y2="6.76287" gradientUnits="userSpaceOnUse">
<stop stop-color="#00FFFF"/>
<stop offset="0.4981" stop-color="#37A2E7"/>
<stop offset="1" stop-color="#1B1464"/>
</linearGradient>
<linearGradient id="paint8_linear_2_38" x1="198.453" y1="41.798" x2="198.453" y2="-0.000191835" gradientUnits="userSpaceOnUse">
<stop stop-color="#00FFFF"/>
<stop offset="0.4981" stop-color="#37A2E7"/>
<stop offset="1" stop-color="#1B1464"/>
</linearGradient>
<linearGradient id="paint9_linear_2_38" x1="178.506" y1="62.0872" x2="178.506" y2="20.2892" gradientUnits="userSpaceOnUse">
<stop stop-color="#00FFFF"/>
<stop offset="0.4981" stop-color="#37A2E7"/>
<stop offset="1" stop-color="#1B1464"/>
</linearGradient>
<linearGradient id="paint10_linear_2_38" x1="168.533" y1="81.9535" x2="168.533" y2="40.1559" gradientUnits="userSpaceOnUse">
<stop stop-color="#00FFFF"/>
<stop offset="0.4981" stop-color="#37A2E7"/>
<stop offset="1" stop-color="#1B1464"/>
</linearGradient>
<linearGradient id="paint11_linear_2_38" x1="158.562" y1="101.82" x2="158.562" y2="60.022" gradientUnits="userSpaceOnUse">
<stop stop-color="#00FFFF"/>
<stop offset="0.4981" stop-color="#37A2E7"/>
<stop offset="1" stop-color="#1B1464"/>
</linearGradient>
<linearGradient id="paint12_linear_2_38" x1="148.589" y1="119.15" x2="148.589" y2="77.3525" gradientUnits="userSpaceOnUse">
<stop stop-color="#00FFFF"/>
<stop offset="0.4981" stop-color="#37A2E7"/>
<stop offset="1" stop-color="#1B1464"/>
</linearGradient>
<linearGradient id="paint13_linear_2_38" x1="138.616" y1="131.408" x2="138.616" y2="89.6105" gradientUnits="userSpaceOnUse">
<stop stop-color="#00FFFF"/>
<stop offset="0.4981" stop-color="#37A2E7"/>
<stop offset="1" stop-color="#1B1464"/>
</linearGradient>
<linearGradient id="paint14_linear_2_38" x1="128.644" y1="142.184" x2="128.644" y2="100.385" gradientUnits="userSpaceOnUse">
<stop stop-color="#00FFFF"/>
<stop offset="0.4981" stop-color="#37A2E7"/>
<stop offset="1" stop-color="#1B1464"/>
</linearGradient>
<linearGradient id="paint15_linear_2_38" x1="71.2973" y1="70.0646" x2="71.2973" y2="26.0133" gradientUnits="userSpaceOnUse">
<stop stop-color="#00FFFF"/>
<stop offset="0.4981" stop-color="#37A2E7"/>
<stop offset="1" stop-color="#1B1464"/>
</linearGradient>
<linearGradient id="paint16_linear_2_38" x1="61.3252" y1="63.3021" x2="61.3252" y2="19.2506" gradientUnits="userSpaceOnUse">
<stop stop-color="#00FFFF"/>
<stop offset="0.4981" stop-color="#37A2E7"/>
<stop offset="1" stop-color="#1B1464"/>
</linearGradient>
<linearGradient id="paint17_linear_2_38" x1="81.2703" y1="83.5912" x2="81.2703" y2="39.5392" gradientUnits="userSpaceOnUse">
<stop stop-color="#00FFFF"/>
<stop offset="0.4981" stop-color="#37A2E7"/>
<stop offset="1" stop-color="#1B1464"/>
</linearGradient>
<linearGradient id="paint18_linear_2_38" x1="91.2431" y1="103.457" x2="91.2431" y2="59.4059" gradientUnits="userSpaceOnUse">
<stop stop-color="#00FFFF"/>
<stop offset="0.4981" stop-color="#37A2E7"/>
<stop offset="1" stop-color="#1B1464"/>
</linearGradient>
<linearGradient id="paint19_linear_2_38" x1="101.216" y1="123.324" x2="101.216" y2="79.2724" gradientUnits="userSpaceOnUse">
<stop stop-color="#00FFFF"/>
<stop offset="0.4981" stop-color="#37A2E7"/>
<stop offset="1" stop-color="#1B1464"/>
</linearGradient>
<linearGradient id="paint20_linear_2_38" x1="111.189" y1="140.654" x2="111.189" y2="96.6023" gradientUnits="userSpaceOnUse">
<stop stop-color="#00FFFF"/>
<stop offset="0.4981" stop-color="#37A2E7"/>
<stop offset="1" stop-color="#1B1464"/>
</linearGradient>
<linearGradient id="paint21_linear_2_38" x1="121.16" y1="152.912" x2="121.16" y2="108.861" gradientUnits="userSpaceOnUse">
<stop stop-color="#00FFFF"/>
<stop offset="0.4981" stop-color="#37A2E7"/>
<stop offset="1" stop-color="#1B1464"/>
</linearGradient>
<linearGradient id="paint22_linear_2_38" x1="190.97" y1="70.0646" x2="190.97" y2="26.0133" gradientUnits="userSpaceOnUse">
<stop stop-color="#00FFFF"/>
<stop offset="0.4981" stop-color="#37A2E7"/>
<stop offset="1" stop-color="#1B1464"/>
</linearGradient>
<linearGradient id="paint23_linear_2_38" x1="200.944" y1="63.3021" x2="200.944" y2="19.2506" gradientUnits="userSpaceOnUse">
<stop stop-color="#00FFFF"/>
<stop offset="0.4981" stop-color="#37A2E7"/>
<stop offset="1" stop-color="#1B1464"/>
</linearGradient>
<linearGradient id="paint24_linear_2_38" x1="180.998" y1="83.5912" x2="180.998" y2="39.5392" gradientUnits="userSpaceOnUse">
<stop stop-color="#00FFFF"/>
<stop offset="0.4981" stop-color="#37A2E7"/>
<stop offset="1" stop-color="#1B1464"/>
</linearGradient>
<linearGradient id="paint25_linear_2_38" x1="171.025" y1="103.457" x2="171.025" y2="59.4059" gradientUnits="userSpaceOnUse">
<stop stop-color="#00FFFF"/>
<stop offset="0.4981" stop-color="#37A2E7"/>
<stop offset="1" stop-color="#1B1464"/>
</linearGradient>
<linearGradient id="paint26_linear_2_38" x1="161.052" y1="123.324" x2="161.052" y2="79.2724" gradientUnits="userSpaceOnUse">
<stop stop-color="#00FFFF"/>
<stop offset="0.4981" stop-color="#37A2E7"/>
<stop offset="1" stop-color="#1B1464"/>
</linearGradient>
<linearGradient id="paint27_linear_2_38" x1="151.079" y1="140.654" x2="151.079" y2="96.6023" gradientUnits="userSpaceOnUse">
<stop stop-color="#00FFFF"/>
<stop offset="0.4981" stop-color="#37A2E7"/>
<stop offset="1" stop-color="#1B1464"/>
</linearGradient>
<linearGradient id="paint28_linear_2_38" x1="141.106" y1="152.912" x2="141.106" y2="108.861" gradientUnits="userSpaceOnUse">
<stop stop-color="#00FFFF"/>
<stop offset="0.4981" stop-color="#37A2E7"/>
<stop offset="1" stop-color="#1B1464"/>
</linearGradient>
<linearGradient id="paint29_linear_2_38" x1="131.133" y1="163.687" x2="131.133" y2="119.636" gradientUnits="userSpaceOnUse">
<stop stop-color="#00FFFF"/>
<stop offset="0.4981" stop-color="#37A2E7"/>
<stop offset="1" stop-color="#1B1464"/>
</linearGradient>
</defs>
</svg>
