<svg width="20" height="18" viewBox="0 0 20 18" fill="none" xmlns="http://www.w3.org/2000/svg">
<g clip-path="url(#clip0_1106_1333)">
<path d="M0.0772026 7.02441L9.17937 12.2665L0.0843506 17.5044C0.0519449 17.2923 0.00381243 17.1231 0.00333588 16.9558C-0.00111196 13.8284 -0.00111196 10.7007 0.00333588 7.57293C0.00333588 7.40137 0.0476562 7.2341 0.0772026 7.02441Z" fill="#37A2E7"/>
<path d="M10.8216 12.2676L19.919 7.02881C19.949 7.22181 19.9962 7.38241 19.9962 7.54349C20.001 10.6869 20.001 13.8302 19.9962 16.9736C19.9962 17.1361 19.9514 17.2981 19.9209 17.5059L10.8216 12.2676Z" fill="#37A2E7"/>
<path d="M19.0988 18H0.905457C0.988377 17.9428 1.0346 17.9047 1.08464 17.8771C4.00115 16.1989 6.91702 14.5197 9.83226 12.8394C9.9614 12.765 10.0543 12.7751 10.1787 12.8465C13.086 14.5246 15.9947 16.2004 18.9049 17.8737C18.9559 17.9033 19.0035 17.939 19.0988 18Z" fill="#37A2E7"/>
<path d="M19.0922 6.55067C18.1905 7.07107 17.3194 7.57479 16.4478 8.07565C14.3919 9.26005 12.3369 10.4451 10.2826 11.6308C10.0796 11.748 9.93569 11.7532 9.726 11.6308C7.40677 10.2846 5.08326 8.94616 2.75545 7.61529C2.18359 7.28679 1.61331 6.95765 1.04462 6.62787C1.00698 6.60643 0.972188 6.58022 0.891174 6.52637C1.01365 6.51874 1.0818 6.51064 1.14899 6.51064C2.43568 6.51064 3.72238 6.5135 5.00907 6.50635C5.17682 6.50635 5.2545 6.56592 5.33361 6.71032C6.35343 8.57651 7.92129 9.59682 10.0572 9.57585C12.1621 9.55536 13.6966 8.52456 14.696 6.68029C14.736 6.60643 14.8389 6.51874 14.9128 6.51826C16.2786 6.50921 17.6439 6.51207 19.0112 6.5135C19.0221 6.51397 19.0355 6.52541 19.0922 6.55067Z" fill="#37A2E7"/>
</g>
<defs>
<clipPath id="clip0_1106_1333">
<rect width="20" height="18" fill="white"/>
</clipPath>
</defs>
</svg>
